<svg width="19" height="22" viewBox="0 0 19 22" fill="none" xmlns="http://www.w3.org/2000/svg">
<path d="M13.4361 8.21945L18.388 16.4815L17.4893 18.3428L11.402 12.4326L8.99351 17.4211L10.9533 20.3064L10.2793 21.7024L6.66604 18.7696L2.15412 17.6982L2.82813 16.3022L6.28557 16.0854L8.69404 11.097L0.336186 9.88955L1.23487 8.02818L10.7278 6.88472L13.1753 1.81529C13.3541 1.44504 13.6682 1.16027 14.0485 1.02362C14.4289 0.886967 14.8444 0.909633 15.2035 1.08663C15.5627 1.26363 15.8361 1.58045 15.9637 1.96741C16.0912 2.35437 16.0625 2.77977 15.8837 3.15002L13.4361 8.21945Z" fill="white"/>
</svg>
