<svg width="15" height="20" viewBox="0 0 15 20" fill="none" xmlns="http://www.w3.org/2000/svg">
<path d="M4.57287 16V7H3.05639V16M7.85857 16V7H6.34209V16M11.1443 16V7H9.6278V16M12.1856 4C13.2775 4 14.1772 4.88 14.1772 6V17C14.1772 18.13 13.2775 19 12.1856 19C12.1856 19.58 11.7104 20 11.1443 20C10.6388 20 10.1333 19.58 10.1333 19H4.06738C4.06738 19.58 3.56189 20 3.05639 20C2.49024 20 2.01508 19.58 2.01508 19C0.923214 19 0.0234375 18.13 0.0234375 17V6C0.0234375 4.88 0.923214 4 2.01508 4H4.06738V1C4.06738 0.42 4.53243 0 5.07836 0H9.1223C9.66823 0 10.1333 0.42 10.1333 1V4M5.58386 1.5V4H8.61681V1.5M12.1856 17V6H2.01508V17" fill="#5F6368"/>
</svg>
