<svg width="12" height="10" viewBox="0 0 12 10" fill="none" xmlns="http://www.w3.org/2000/svg">
<path d="M11.6894 9.12659L10.945 3.34773C10.9209 3.15944 10.8223 2.98598 10.6682 2.86052C10.5141 2.73507 10.3153 2.66643 10.1098 2.66775H8.35426C8.35426 2.05469 8.09027 1.46674 7.62036 1.03324C7.15045 0.599738 6.51312 0.356201 5.84857 0.356201C5.18402 0.356201 4.54669 0.599738 4.07679 1.03324C3.60688 1.46674 3.34289 2.05469 3.34289 2.66775H1.58525C1.37974 2.66643 1.18091 2.73507 1.02681 2.86052C0.872717 2.98598 0.774169 3.15944 0.750026 3.34773L0.005628 9.12659C-0.00801354 9.23445 0.00321144 9.34375 0.0385669 9.44732C0.0739223 9.5509 0.13261 9.64641 0.210781 9.72759C0.289518 9.80912 0.386002 9.87442 0.493939 9.91923C0.601876 9.96404 0.718841 9.98735 0.837203 9.98764H10.8558C10.9748 9.98789 11.0926 9.96484 11.2013 9.92002C11.31 9.87519 11.4072 9.80961 11.4864 9.72759C11.5642 9.64625 11.6225 9.55066 11.6575 9.4471C11.6925 9.34353 11.7034 9.23431 11.6894 9.12659ZM5.84857 1.12672C6.29161 1.12672 6.71649 1.28907 7.02977 1.57807C7.34304 1.86707 7.51903 2.25904 7.51903 2.66775H4.17812C4.17812 2.25904 4.35411 1.86707 4.66738 1.57807C4.98065 1.28907 5.40554 1.12672 5.84857 1.12672Z" fill="#5F6368"/>
</svg>
