<svg width="25" height="24" viewBox="0 0 25 24" fill="none" xmlns="http://www.w3.org/2000/svg">
<path d="M22.7414 2.84774L16.7635 2.84776V1.40019C16.7635 0.998891 16.4294 0.673859 16.0169 0.673859C15.6044 0.673859 15.2703 0.998891 15.2703 1.40019V2.8474H9.29759V1.40019C9.29759 0.998891 8.96349 0.673859 8.551 0.673859C8.13851 0.673859 7.80441 0.998891 7.80441 1.40019V2.8474H1.83693C1.01232 2.8474 0.34375 3.49783 0.34375 4.30006V22.4583C0.34375 23.2605 1.01232 23.911 1.83693 23.911H22.7414C23.566 23.911 24.2346 23.2605 24.2346 22.4583V4.30006C24.2346 3.49817 23.566 2.84774 22.7414 2.84774ZM22.7414 22.4583H1.83693V4.30006H7.80441V5.03184C7.80441 5.43311 8.13851 5.75817 8.551 5.75817C8.96349 5.75817 9.29759 5.43311 9.29759 5.03184V4.30042H15.2703V5.0322C15.2703 5.4335 15.6044 5.75853 16.0169 5.75853C16.4294 5.75853 16.7635 5.4335 16.7635 5.0322V4.30042H22.7414V22.4583ZM17.5153 12.29H19.0085C19.4206 12.29 19.7551 11.9646 19.7551 11.5637V10.111C19.7551 9.71011 19.4206 9.38471 19.0085 9.38471H17.5153C17.1032 9.38471 16.7687 9.71011 16.7687 10.111V11.5637C16.7687 11.9646 17.1032 12.29 17.5153 12.29ZM17.5153 18.1003H19.0085C19.4206 18.1003 19.7551 17.7753 19.7551 17.374V15.9213C19.7551 15.5204 19.4206 15.195 19.0085 15.195H17.5153C17.1032 15.195 16.7687 15.5204 16.7687 15.9213V17.374C16.7687 17.7756 17.1032 18.1003 17.5153 18.1003ZM13.0358 15.195H11.5426C11.1305 15.195 10.796 15.5204 10.796 15.9213V17.374C10.796 17.7753 11.1305 18.1003 11.5426 18.1003H13.0358C13.4479 18.1003 13.7823 17.7753 13.7823 17.374V15.9213C13.7823 15.5207 13.4479 15.195 13.0358 15.195ZM13.0358 9.38471H11.5426C11.1305 9.38471 10.796 9.71011 10.796 10.111V11.5637C10.796 11.9646 11.1305 12.29 11.5426 12.29H13.0358C13.4479 12.29 13.7823 11.9646 13.7823 11.5637V10.111C13.7823 9.70974 13.4479 9.38471 13.0358 9.38471ZM7.06305 9.38471H5.56987C5.15776 9.38471 4.82328 9.71011 4.82328 10.111V11.5637C4.82328 11.9646 5.15776 12.29 5.56987 12.29H7.06305C7.47517 12.29 7.80964 11.9646 7.80964 11.5637V10.111C7.80964 9.70974 7.47517 9.38471 7.06305 9.38471ZM7.06305 15.195H5.56987C5.15776 15.195 4.82328 15.5204 4.82328 15.9213V17.374C4.82328 17.7753 5.15776 18.1003 5.56987 18.1003H7.06305C7.47517 18.1003 7.80964 17.7753 7.80964 17.374V15.9213C7.80964 15.5207 7.47517 15.195 7.06305 15.195Z" fill="#202124"/>
</svg>
