<svg width="174" height="28" viewBox="0 0 174 28" fill="none" xmlns="http://www.w3.org/2000/svg">
<path d="M26 0H2C0.895431 0 0 0.895431 0 2V26C0 27.1046 0.895431 28 2 28H26C27.1046 28 28 27.1046 28 26V2C28 0.895431 27.1046 0 26 0Z" fill="#E34825"/>
<path d="M10.8847 8.06055L13.1099 10.2322L7.82326 15.4532L12.4879 20.2025L17.8315 14.8588L19.9548 17.0132L10.4113 26.5585L8.29664 24.5009C8.8443 24.0272 9.26529 23.4245 9.52154 22.7473C9.93618 21.626 10.0018 19.9433 9.10345 19.0207C7.99775 17.8857 5.4512 17.9202 3.54042 19.7723L1.42578 17.5747L10.8847 8.06055Z" fill="white"/>
<path d="M18.0933 0.929688C18.8085 1.60462 19.5226 2.28128 20.2356 2.95967C18.2056 4.51456 18.1797 7.30816 19.5134 8.57798C20.7988 9.80288 23.4611 9.70786 24.9641 7.77117L27.1064 9.91346L21.0078 16.0328L18.6928 13.7868L20.5103 11.9607L15.9389 7.5604L14.2527 9.20512L12.0586 6.93498L18.0933 0.929688Z" fill="white"/>
<path d="M15.9822 9.35961L14.6836 10.6582L17.4201 13.3947L18.7186 12.0961L15.9822 9.35961Z" fill="white"/>
<path d="M13.8367 11.4211L9.57812 15.6797L12.3903 18.4919L16.6489 14.2333L13.8367 11.4211Z" fill="white"/>
<path d="M3.43359 17.816L3.55626 17.6934" stroke="#F1592A" stroke-miterlimit="10"/>
<path d="M3.80078 17.4432L11.1053 10.1094" stroke="#F1592A" stroke-miterlimit="10" stroke-dasharray="2.03 2.03"/>
<path d="M11.2344 9.98595L11.3553 9.86328" stroke="#F1592A" stroke-miterlimit="10"/>
<path d="M10.4297 24.7845L10.5489 24.6602" stroke="#F1592A" stroke-miterlimit="10"/>
<path d="M10.7969 24.3998L17.958 16.9277" stroke="#F1592A" stroke-miterlimit="10" stroke-dasharray="2.03 2.03"/>
<path d="M18.0742 16.806L18.1952 16.6816" stroke="#F1592A" stroke-miterlimit="10"/>
<path d="M20.5039 14.6444L20.6266 14.5234" stroke="#F1592A" stroke-miterlimit="10"/>
<path d="M20.8672 14.2891L25.4817 9.74023" stroke="#F1592A" stroke-miterlimit="10" stroke-dasharray="1.92 1.92"/>
<path d="M25.5977 9.62461L25.722 9.50195" stroke="#F1592A" stroke-miterlimit="10"/>
<path d="M13.4688 7.6307L13.5914 7.50977" stroke="#F1592A" stroke-miterlimit="10"/>
<path d="M13.8281 7.27742L18.4427 2.72852" stroke="#F1592A" stroke-miterlimit="10" stroke-dasharray="1.92 1.92"/>
<path d="M18.5625 2.61312L18.6852 2.49219" stroke="#F1592A" stroke-miterlimit="10"/>
<path d="M48.2074 12.484C48.2074 15.2309 47.0136 20.7093 40.5695 20.7093C36.722 20.7093 34.9961 18.662 34.9961 15.3536C34.9961 12.0935 36.779 7.03323 42.5407 7.03323C46.0081 7.02459 48.2074 8.97683 48.2074 12.484ZM39.8871 15.9133C39.8871 17.0139 40.1134 17.5633 40.9098 17.5633C42.7671 17.5633 43.3545 12.503 43.3545 11.7255C43.3545 10.5697 43.1091 10.1896 42.3317 10.1896C40.6075 10.1896 39.8871 14.7005 39.8871 15.9133ZM45.0994 18.3787L48.1694 20.1219L46.0841 22.7566L41.9378 20.407L45.0994 18.3787Z" fill="white"/>
<path d="M59.8763 17.0527C59.4789 18.929 59.3269 19.7997 59.2509 20.3698H54.7469C54.7462 20.0647 54.7716 19.7601 54.8229 19.4593C54.1785 20.1504 53.4961 20.6151 52.1502 20.6151C50.027 20.6151 49.1735 19.4974 49.6676 17.184L51.1447 10.2734H55.7697L54.4238 16.5845C54.2908 17.1909 54.3858 17.4484 54.7469 17.4484C55.0682 17.4484 55.2393 17.127 55.3913 16.4446L56.7181 10.2752H61.3431L59.8763 17.0527Z" fill="white"/>
<path d="M63.8506 10.2754H68.4565L66.3142 20.3787H61.7031L63.8506 10.2754ZM64.59 6.86328H69.189L68.6206 9.49795H64.0234L64.59 6.86328Z" fill="white"/>
<path d="M79.7289 16.8247C79.1225 18.986 77.5486 20.6152 74.0812 20.6152C70.7987 20.6152 69.5703 18.853 69.5703 16.5207C69.5703 13.6787 71.2185 10.0195 75.7294 10.0195C78.4401 10.0195 80.4493 11.2703 80.2593 14.114H75.9453C76.0974 13.2226 76.1354 12.6352 75.6223 12.6352C74.7325 12.6352 74.1641 16.2943 74.1641 17.2411C74.1641 17.9235 74.3715 18.0375 74.5995 18.0375C75.0729 18.0375 75.2249 17.5072 75.434 16.8282L79.7289 16.8247Z" fill="white"/>
<path d="M87.0041 13.7917C87.6675 12.8053 88.559 11.2521 89.1654 10.2656H94.1877C93.0129 11.6685 91.769 13.0903 90.5855 14.3982C91.1038 16.1414 91.686 18.2836 92.1974 20.3689H87.4447C87.2183 19.1924 86.9523 17.7342 86.8383 17.2591C86.6862 17.4319 86.4029 17.7342 86.1178 18.0176L85.5995 20.3689H81.0195L83.8943 6.85352H88.4812L87.0041 13.7917Z" fill="white"/>
<path d="M102.605 10.589H99.5156L100.207 7.36523H111.106L110.415 10.589H107.363L105.277 20.3692H100.521L102.605 10.589Z" fill="white"/>
<path d="M112.517 10.2743H117.123L114.99 20.3689H110.375L112.517 10.2743ZM113.262 6.85352H117.868L117.299 9.48818H112.688L113.262 6.85352Z" fill="white"/>
<path d="M128.402 16.8247C127.796 18.986 126.222 20.6152 122.753 20.6152C119.471 20.6152 118.242 18.853 118.242 16.5207C118.242 13.6787 119.892 10.0195 124.403 10.0195C127.114 10.0195 129.123 11.2703 128.933 14.114H124.614C124.766 13.2226 124.804 12.6352 124.292 12.6352C123.401 12.6352 122.833 16.2943 122.833 17.2411C122.833 17.9235 123.042 18.0375 123.268 18.0375C123.743 18.0375 123.895 17.5072 124.102 16.8282L128.402 16.8247Z" fill="white"/>
<path d="M135.681 13.7917C136.345 12.8053 137.236 11.2521 137.842 10.2656H142.865C141.69 11.6685 140.446 13.0903 139.264 14.3982C139.783 16.1414 140.363 18.2836 140.874 20.3689H136.118C135.89 19.1924 135.624 17.7342 135.512 17.2591C135.36 17.4319 135.075 17.7342 134.791 18.0176L134.273 20.3689H129.691L132.573 6.85352H137.16L135.681 13.7917Z" fill="white"/>
<path d="M147.163 16.1618C147.08 16.4584 147.036 16.7644 147.032 17.0723C147.032 17.6787 147.239 17.962 147.619 17.962C148.054 17.962 148.264 17.6407 148.433 17.2416H152.869C152.32 18.7775 151.086 20.6157 147.353 20.6157C143.563 20.6157 142.516 18.5874 142.516 16.2966C142.516 14.1923 143.747 9.98373 148.656 10.0217C152.315 10.0407 153.493 11.974 153.493 14.1681C153.475 14.8416 153.373 15.5103 153.189 16.1583L147.163 16.1618ZM148.984 14.0195C149.067 13.7496 149.112 13.4692 149.117 13.1868C149.117 12.7877 148.984 12.5424 148.642 12.5424C148.168 12.5424 147.845 13.0157 147.619 14.0195H148.984Z" fill="white"/>
<path d="M155.804 10.2742H157.055L157.604 7.85547H162.077L161.547 10.2742H162.911L162.305 13.1179H160.942L160.126 16.8323C159.995 17.4007 160.107 17.6098 160.659 17.6098C160.889 17.6096 161.12 17.5969 161.35 17.5718L160.78 20.2444C160.033 20.4533 159.262 20.5614 158.487 20.5658C155.757 20.5658 154.98 19.657 155.51 17.1554L156.374 13.1179H155.199L155.804 10.2742Z" fill="white"/>
<path d="M167.291 17.0908C167.31 17.6592 167.614 17.9995 168.144 17.9995C168.618 17.9995 168.865 17.8475 168.865 17.4501C168.865 17.0908 168.542 16.9319 167.69 16.6727C165.377 15.9333 164.221 15.0245 164.221 13.4316C164.221 11.8768 165.257 10.0195 168.922 10.0195C172.617 10.0195 173.661 11.8405 173.642 13.2606H169.794C169.775 12.7682 169.566 12.3519 168.979 12.3519C168.46 12.3519 168.353 12.5592 168.353 12.8442C168.353 13.1293 168.699 13.3176 169.735 13.6787C172.154 14.5131 173.191 15.3649 173.191 17.0338C173.191 18.5679 172.244 20.6152 168.13 20.6152C164.397 20.6152 163.279 18.6249 163.372 17.0908H167.291Z" fill="white"/>
<path d="M64.5227 6.80664L69.1977 6.85156L68.6224 9.48968H64.0234L64.5227 6.80664Z" fill="#E34825"/>
<path d="M113.261 6.85352H117.867L117.348 9.48818H112.684C112.876 8.61053 113.068 7.73231 113.261 6.85352Z" fill="#E34825"/>
</svg>
