<svg width="21" height="21" viewBox="0 0 21 21" fill="none" xmlns="http://www.w3.org/2000/svg">
<path d="M18.6664 16.7403C17.8711 15.9367 17.8045 14.7127 17.9615 13.593C17.9872 13.41 18.001 13.2223 18.001 13.03C18.001 10.58 16.061 8.61997 13.636 8.61997C11.211 8.61997 9.27102 10.58 9.27102 13.03C9.27102 15.48 11.211 17.44 13.636 17.44C13.8216 17.44 14.0028 17.4267 14.1796 17.402C15.2944 17.2463 16.5161 17.3117 17.3079 18.1117L18.3821 19.1969C18.7598 19.5785 19.3763 19.5785 19.754 19.1969C20.1262 18.8208 20.1262 18.2151 19.754 17.839L18.6664 16.7403ZM13.636 15.48C12.278 15.48 11.211 14.402 11.211 13.03C11.211 11.658 12.278 10.58 13.636 10.58C14.994 10.58 16.061 11.658 16.061 13.03C16.061 14.402 14.994 15.48 13.636 15.48ZM9.26311 18.358C9.79999 18.4265 10.241 18.8587 10.241 19.4C10.241 19.9412 9.80099 20.3852 9.26251 20.3306C4.36706 19.8345 0.541016 15.6559 0.541016 10.58C0.541016 5.17037 4.88662 0.779968 10.241 0.779968C14.5107 0.779968 18.1305 3.56825 19.4296 7.43464C19.6318 8.03629 19.154 8.61997 18.5193 8.61997C18.0603 8.61997 17.6659 8.30618 17.509 7.8748C17.182 6.97613 16.6941 6.14342 16.0675 5.4193C15.3589 4.60057 14.4906 3.94085 13.5185 3.48059C13.3453 3.39861 13.151 3.5284 13.151 3.71997C13.151 4.79797 12.278 5.67997 11.211 5.67997C10.1396 5.67997 9.27102 6.54854 9.27102 7.61997V7.63997C9.27102 8.17897 8.83452 8.61997 8.30102 8.61997H7.34102C6.79978 8.61997 6.36102 9.06376 6.36102 9.60499C6.36102 10.1407 6.7953 10.58 7.33102 10.58C7.86673 10.58 8.30102 11.0143 8.30102 11.55V12.8355C8.30102 13.2135 7.99458 13.52 7.61658 13.52C7.43384 13.52 7.25868 13.4469 7.13013 13.317L3.92955 10.0834C3.39215 9.5405 2.48102 9.81604 2.48102 10.58C2.48102 14.5672 5.44503 17.8704 9.26311 18.358Z" fill="white"/>
</svg>
