<svg width="22" height="21" viewBox="0 0 22 21" fill="none" xmlns="http://www.w3.org/2000/svg">
<path d="M21.4806 19.2911C21.4806 19.8925 20.9931 20.38 20.3917 20.38H1.22951C0.628135 20.38 0.140625 19.8925 0.140625 19.2911V18.7357C0.140625 18.441 0.379481 18.2022 0.674125 18.2022C0.968769 18.2022 1.20763 17.9633 1.20763 17.6687V1.86886C1.20763 1.58007 1.32004 1.3031 1.52014 1.0989C1.72024 0.89469 1.99164 0.779968 2.27463 0.779968H17.2126C17.4956 0.779968 17.767 0.89469 17.9671 1.0989C18.1672 1.3031 18.2796 1.58007 18.2796 1.86886V6.2463C18.2796 6.83559 18.7573 7.3133 19.3466 7.3133C19.9359 7.3133 20.4136 7.79101 20.4136 8.3803V17.6687C20.4136 17.9633 20.6525 18.2022 20.9471 18.2022C21.2418 18.2022 21.4806 18.441 21.4806 18.7357V19.2911ZM16.1456 17.1352C16.1456 17.7245 16.6233 18.2022 17.2126 18.2022C17.8019 18.2022 18.2796 17.7245 18.2796 17.1352V12.6921C18.2796 10.9242 16.8465 9.49108 15.0786 9.49108C13.3108 9.49108 11.8776 10.9242 11.8776 12.6921V17.1352C11.8776 17.7245 12.3553 18.2022 12.9446 18.2022C13.5339 18.2022 14.0116 17.7245 14.0116 17.1352V12.7359C14.0116 12.1466 14.4893 11.6689 15.0786 11.6689C15.6679 11.6689 16.1456 12.1466 16.1456 12.7359V17.1352ZM13.9678 7.3133C15.1706 7.3133 16.1456 6.33828 16.1456 5.13552C16.1456 3.93277 15.1706 2.95775 13.9678 2.95775H8.19163C5.51305 2.95775 3.34163 5.12917 3.34163 7.80775V15.0012C3.34163 16.7691 4.77476 18.2022 6.54263 18.2022C8.31049 18.2022 9.74363 16.7691 9.74363 15.0012V10.5143C9.74363 8.74644 11.1768 7.3133 12.9446 7.3133H13.9678ZM5.47563 10.5581C5.47563 9.96879 5.95334 9.49108 6.54263 9.49108C7.13191 9.49108 7.60963 9.96879 7.60963 10.5581V10.6019C7.60963 11.1911 7.13191 11.6689 6.54263 11.6689C5.95334 11.6689 5.47563 11.1911 5.47563 10.6019V10.5581ZM5.47563 14.9136C5.47563 14.3243 5.95334 13.8466 6.54263 13.8466C7.13191 13.8466 7.60963 14.3243 7.60963 14.9136V14.9574C7.60963 15.5467 7.13191 16.0244 6.54263 16.0244C5.95334 16.0244 5.47563 15.5467 5.47563 14.9574V14.9136ZM5.47563 6.20252C5.47563 5.61324 5.95334 5.13552 6.54263 5.13552C7.13191 5.13552 7.60963 5.61324 7.60963 6.20252V6.2463C7.60963 6.83559 7.13191 7.3133 6.54263 7.3133C5.95334 7.3133 5.47563 6.83559 5.47563 6.2463V6.20252Z" fill="white"/>
</svg>
