<svg width="20" height="18" viewBox="0 0 20 18" fill="none" xmlns="http://www.w3.org/2000/svg">
<path d="M12.6296 10.0908L7.93421 17.4276L6.07562 17.4277L8.42263 10.091L3.4416 10.0913L1.89354 12.8425L0.499597 12.8426L1.42867 8.71577L0.49916 4.58901L1.8931 4.58894L3.44239 7.34006L8.42341 7.33979L6.07469 0.00337493L7.93328 0.00327645L12.6294 7.33957L17.6913 7.3393C18.061 7.33928 18.4155 7.48419 18.677 7.74215C18.9384 8.00012 19.0853 8.35 19.0853 8.71483C19.0853 9.07966 18.9385 9.42956 18.6771 9.68755C18.4157 9.94554 18.0611 10.0905 17.6914 10.0905L12.6296 10.0908Z" fill="#E34825"/>
</svg>
