<svg width="13" height="19" viewBox="0 0 13 19" fill="none" xmlns="http://www.w3.org/2000/svg">
<path d="M4.06125 15.272V7.14953H2.7075V15.272M6.99438 15.272V7.14953H5.64062V15.272M9.9275 15.272V7.14953H8.57375V15.272M10.8571 4.44203C11.8318 4.44203 12.635 5.23623 12.635 6.24703V16.1745C12.635 17.1944 11.8318 17.9795 10.8571 17.9795C10.8571 18.503 10.4329 18.882 9.9275 18.882C9.47625 18.882 9.025 18.503 9.025 17.9795H3.61C3.61 18.503 3.15875 18.882 2.7075 18.882C2.2021 18.882 1.77792 18.503 1.77792 17.9795C0.803225 17.9795 0 17.1944 0 16.1745V6.24703C0 5.23623 0.803225 4.44203 1.77792 4.44203H3.61V1.73453C3.61 1.21108 4.02515 0.832031 4.5125 0.832031H8.1225C8.60985 0.832031 9.025 1.21108 9.025 1.73453V4.44203M4.96375 2.18578V4.44203H7.67125V2.18578M10.8571 16.1745V6.24703H1.77792V16.1745" fill="#5F6368"/>
</svg>
