<svg width="36" height="36" viewBox="0 0 36 36" fill="none" xmlns="http://www.w3.org/2000/svg">
<path fill-rule="evenodd" clip-rule="evenodd" d="M16.209 0.859009C13.6196 0.859278 11.0679 1.4545 8.76751 2.59486C6.46716 3.73522 4.48511 5.38752 2.98726 7.41345C1.48942 9.43938 0.519381 11.78 0.158343 14.2393C-0.202694 16.6987 0.0557789 19.2052 0.912125 21.549C1.76847 23.8929 3.19777 26.0059 5.08038 27.7111C6.96298 29.4164 9.2441 30.6643 11.7328 31.3503C14.2215 32.0364 16.8453 32.1406 19.3846 31.6544C21.924 31.1681 24.3049 30.1055 26.3281 28.5554L32.9475 34.9043C33.2872 35.2189 33.7422 35.3931 34.2145 35.3891C34.6867 35.3852 35.1385 35.2035 35.4724 34.8832C35.8064 34.5629 35.9958 34.1296 35.9999 33.6766C36.004 33.2237 35.8225 32.7873 35.4944 32.4615L28.875 26.1126C30.7806 23.8251 31.9741 21.0679 32.318 18.1585C32.6619 15.2491 32.1422 12.3057 30.8188 9.66702C29.4954 7.02839 27.422 4.80181 24.8374 3.24356C22.2527 1.68532 19.2618 0.858756 16.209 0.859009ZM5.40183 16.4072C5.40183 15.0459 5.68137 13.6981 6.22448 12.4405C6.76759 11.1829 7.56364 10.0402 8.56717 9.07769C9.57071 8.11517 10.7621 7.35166 12.0733 6.83074C13.3845 6.30983 14.7898 6.04172 16.209 6.04172C17.6282 6.04172 19.0335 6.30983 20.3447 6.83074C21.6559 7.35166 22.8473 8.11517 23.8508 9.07769C24.8544 10.0402 25.6504 11.1829 26.1935 12.4405C26.7366 13.6981 27.0162 15.0459 27.0162 16.4072C27.0162 19.1562 25.8776 21.7927 23.8508 23.7366C21.8241 25.6805 19.0752 26.7726 16.209 26.7726C13.3428 26.7726 10.5939 25.6805 8.56717 23.7366C6.54044 21.7927 5.40183 19.1562 5.40183 16.4072Z" fill="white"/>
</svg>
